<svg width="42" height="40" viewBox="0 0 42 40" fill="none" xmlns="http://www.w3.org/2000/svg">
<path d="M28.958 20.5215C28.958 24.959 25.9268 28.084 21.458 28.084C17.1455 28.084 13.708 24.6465 13.708 20.334C13.708 16.0527 17.1455 12.584 21.458 12.584C23.5205 12.584 25.3018 13.3652 26.6455 14.6152L24.5205 16.6465C21.7705 13.9902 16.6455 15.9902 16.6455 20.334C16.6455 23.0527 18.8018 25.2402 21.458 25.2402C24.5205 25.2402 25.6768 23.0527 25.833 21.8965H21.458V19.2402H28.833C28.8955 19.6465 28.958 20.0215 28.958 20.5215Z" fill="white"/>
<rect opacity="0.1" width="42" height="40" rx="20" fill="#2387C0"/>
</svg>
