<svg width="40" height="40" viewBox="0 0 40 40" fill="none" xmlns="http://www.w3.org/2000/svg">
<rect opacity="0.1" width="40" height="40" rx="20" fill="#2387C0"/>
<path d="M26.333 13.334C26.8643 13.334 27.333 13.8027 27.333 14.3652V26.334C27.333 26.8965 26.8643 27.334 26.333 27.334H14.3018C13.7705 27.334 13.333 26.8965 13.333 26.334V14.3652C13.333 13.8027 13.7705 13.334 14.3018 13.334H26.333ZM17.5518 25.334V18.6777H15.4893V25.334H17.5518ZM16.5205 17.7402C17.1768 17.7402 17.708 17.209 17.708 16.5527C17.708 15.8965 17.1768 15.334 16.5205 15.334C15.833 15.334 15.3018 15.8965 15.3018 16.5527C15.3018 17.209 15.833 17.7402 16.5205 17.7402ZM25.333 25.334V21.6777C25.333 19.8965 24.9268 18.4902 22.833 18.4902C21.833 18.4902 21.1455 19.0527 20.8643 19.584H20.833V18.6777H18.8643V25.334H20.9268V22.0527C20.9268 21.1777 21.083 20.334 22.1768 20.334C23.2393 20.334 23.2393 21.334 23.2393 22.084V25.334H25.333Z" fill="white"/>
</svg>
